<?xml version="1.0" standalone="no"?>
<!DOCTYPE svg PUBLIC "-//W3C//DTD SVG 20010904//EN"
 "http://www.w3.org/TR/2001/REC-SVG-20010904/DTD/svg10.dtd">
<svg version="1.0" xmlns="http://www.w3.org/2000/svg"
 width="1024.000000pt" height="1024.000000pt" viewBox="0 0 1024.000000 1024.000000"
 preserveAspectRatio="xMidYMid meet">

<g transform="translate(0.000000,1024.000000) scale(0.100000,-0.100000)"
fill="#000000" stroke="none">
<path d="M3910 9074 c-143 -38 -266 -160 -313 -308 -22 -71 -22 -73 -22 -788
0 -395 -3 -718 -8 -718 -4 0 -51 7 -105 16 -189 30 -473 19 -683 -27 -194 -42
-425 -138 -590 -244 -712 -458 -1027 -1352 -759 -2156 204 -615 737 -1085
1374 -1214 123 -25 300 -45 393 -45 l52 0 31 -102 c17 -57 39 -129 49 -161 19
-58 19 -58 -3 -67 -35 -13 -67 -56 -72 -97 -7 -52 438 -1581 493 -1693 132
-270 483 -370 752 -213 25 14 71 52 101 82 100 103 150 230 150 386 0 92 -4
108 -130 530 -50 171 -148 501 -217 735 -69 234 -132 437 -139 452 -21 40 -68
62 -120 54 -43 -5 -43 -5 -54 32 -5 20 -25 89 -44 152 l-33 115 73 40 c238
129 475 352 644 603 34 52 66 90 71 85 4 -4 32 -39 62 -77 l54 -70 -37 -85
c-21 -47 -47 -118 -60 -156 l-23 -71 -156 -26 c-147 -25 -157 -28 -183 -57
l-28 -31 0 -385 0 -385 29 -32 c28 -31 35 -33 186 -58 l157 -25 32 -85 c17
-47 51 -120 74 -163 l42 -79 -80 -103 c-99 -129 -115 -160 -106 -211 6 -34 41
-72 274 -307 l267 -267 50 0 c57 0 56 0 207 117 l107 84 68 -34 c37 -19 104
-47 148 -63 44 -15 81 -28 83 -29 1 -1 11 -69 21 -150 18 -141 21 -149 50
-179 l31 -31 390 -3 c434 -3 442 -2 474 61 9 18 25 92 35 166 11 73 21 134 23
135 2 1 28 10 58 19 31 9 98 37 149 62 l92 45 98 -79 c133 -108 156 -121 216
-121 l49 0 239 238 c282 280 297 298 297 361 0 52 -2 55 -112 193 l-77 98 40
70 c39 68 108 224 109 246 0 6 64 20 148 33 81 13 159 30 174 39 59 34 60 41
56 449 l-3 373 -31 30 c-27 28 -45 34 -160 55 -71 14 -140 25 -154 25 -24 0
-28 8 -54 88 -16 48 -43 120 -61 159 l-34 73 100 126 c54 69 102 137 105 150
13 52 -4 88 -84 172 l-77 82 242 0 c263 0 311 7 406 63 96 57 181 179 206 295
8 38 11 535 11 1730 0 1832 2 1745 -57 1855 -56 103 -171 192 -287 223 -79 21
-4606 19 -4686 -2z m4680 -238 c59 -30 106 -92 119 -158 8 -37 11 -542 9
-1713 -3 -1573 -4 -1662 -21 -1700 -25 -55 -54 -84 -112 -111 -49 -24 -54 -24
-389 -24 l-340 0 -81 80 c-131 127 -150 128 -331 4 -68 -46 -128 -84 -133 -84
-5 0 -55 24 -112 54 -57 29 -130 62 -161 72 -54 16 -58 20 -58 48 0 63 -33
282 -46 308 -29 57 -37 58 -466 58 -367 0 -395 -1 -424 -19 -43 -26 -52 -55
-72 -230 l-17 -154 -30 -10 c-73 -23 -182 -70 -236 -102 l-59 -35 -127 90
c-69 49 -141 92 -158 96 -56 10 -94 -16 -230 -163 -72 -77 -131 -139 -132
-139 -1 1 7 47 19 101 19 87 22 133 23 340 0 212 -3 253 -23 354 -100 494
-378 912 -787 1186 -105 70 -328 185 -388 200 l-27 7 2 752 3 751 22 41 c24
46 72 90 118 110 24 11 453 13 2315 13 l2285 0 45 -23z m-5248 -1776 c503 -49
931 -311 1212 -743 346 -530 332 -1236 -35 -1792 -89 -135 -269 -318 -409
-417 -410 -289 -953 -368 -1430 -209 -563 189 -966 643 -1091 1231 -30 141
-32 433 -5 585 64 353 213 637 465 885 126 124 241 208 391 285 289 147 588
206 902 175z m3411 -1647 c3 -21 9 -83 13 -138 10 -150 29 -180 124 -200 65
-14 211 -77 300 -131 48 -29 100 -56 114 -60 34 -8 87 19 207 106 l97 69 188
-190 c104 -105 188 -192 187 -195 -1 -3 -42 -58 -92 -122 -55 -71 -93 -130
-97 -150 -5 -27 3 -52 44 -136 28 -57 65 -146 82 -197 59 -174 61 -179 88
-193 15 -8 89 -24 165 -37 l137 -24 0 -252 c0 -139 -2 -253 -4 -253 -31 0
-282 -43 -297 -50 -22 -13 -44 -52 -54 -100 -12 -58 -73 -199 -131 -302 -55
-98 -65 -139 -42 -181 6 -12 45 -66 85 -119 l75 -97 -20 -28 c-12 -16 -92 -99
-179 -185 l-158 -157 -95 81 c-119 100 -147 118 -186 118 -19 0 -82 -26 -155
-63 -68 -35 -170 -78 -227 -96 -71 -22 -107 -39 -117 -55 -8 -12 -24 -84 -36
-159 l-22 -137 -270 2 -271 3 -16 133 c-21 164 -23 167 -168 217 -59 20 -158
63 -219 96 -160 84 -160 84 -333 -55 -52 -42 -97 -76 -100 -76 -3 0 -86 81
-184 179 l-179 179 45 58 c98 128 128 177 128 210 0 21 -23 78 -59 151 -33 65
-76 168 -96 228 -51 149 -60 157 -206 179 -63 9 -126 19 -141 22 l-28 6 0 252
0 253 137 21 c75 12 147 29 159 37 23 15 33 40 79 185 14 47 48 132 75 189 74
153 73 157 -68 339 -35 45 -62 86 -60 91 2 4 85 93 185 196 l181 187 79 -60
c175 -133 206 -143 287 -92 85 54 209 113 315 149 138 48 138 48 159 239 l16
152 277 0 276 0 6 -37z m-2901 -1843 c21 -69 38 -130 38 -135 0 -10 -328 -111
-335 -103 -4 5 -85 281 -82 283 1 1 48 11 104 23 56 13 126 31 155 42 29 10
60 18 68 17 9 -1 27 -45 52 -127z m248 -323 c0 -7 83 -292 184 -633 261 -877
246 -823 246 -898 0 -128 -58 -224 -168 -278 -59 -29 -76 -33 -147 -33 -67 1
-89 5 -135 29 -93 47 -133 97 -169 216 -49 160 -421 1434 -418 1435 1 1 83 25
182 53 99 29 230 68 290 87 125 38 135 40 135 22z"/>
<path d="M7166 8574 c-165 -36 -318 -151 -391 -294 -63 -125 -78 -293 -37
-425 57 -187 226 -339 421 -381 365 -77 702 184 701 546 0 160 -52 284 -164
396 -85 85 -183 137 -299 159 -96 18 -141 18 -231 -1z m256 -232 c70 -31 141
-102 174 -175 24 -53 28 -75 28 -147 1 -72 -4 -94 -27 -145 -82 -175 -278
-251 -449 -172 -74 33 -119 75 -159 149 -33 60 -34 68 -34 168 0 95 3 110 28
160 46 90 111 147 200 176 60 20 180 13 239 -14z"/>
<path d="M5000 8566 c-105 -30 -180 -85 -226 -168 -26 -48 -29 -62 -29 -143 0
-105 18 -148 86 -209 55 -50 116 -77 274 -122 145 -41 196 -63 219 -96 20 -28
20 -51 1 -88 -53 -103 -300 -86 -465 30 l-25 18 -57 -89 -57 -89 33 -25 c53
-40 175 -92 258 -109 300 -62 539 65 556 295 13 181 -82 272 -368 355 -69 20
-142 45 -162 55 -141 72 -45 216 130 194 77 -10 149 -32 208 -66 l51 -29 56
90 56 90 -41 26 c-101 64 -216 94 -354 93 -54 0 -119 -6 -144 -13z"/>
<path d="M5770 8025 l0 -545 390 0 390 0 0 108 0 107 -275 -3 -275 -3 0 116 0
116 235 -3 235 -3 0 108 0 107 -235 0 -235 0 0 110 0 110 275 0 275 0 0 110 0
110 -390 0 -390 0 0 -545z"/>
<path d="M6469 7162 c-6 -15 -73 -196 -149 -402 -77 -206 -172 -465 -213 -575
l-75 -200 100 -34 c54 -18 101 -31 104 -28 10 10 444 1182 441 1191 -2 5 -47
24 -101 42 l-97 33 -10 -27z"/>
<path d="M5497 6822 l-267 -267 273 -273 272 -272 78 78 77 77 -195 195 -195
195 192 192 193 193 -75 75 c-41 41 -77 75 -80 75 -3 0 -125 -120 -273 -268z"/>
<path d="M6850 7015 l-75 -75 193 -193 192 -192 -195 -195 -195 -195 82 -78
81 -79 274 274 275 273 -274 267 c-150 147 -275 268 -278 268 -3 0 -39 -34
-80 -75z"/>
<path d="M3025 6793 c-68 -8 -185 -37 -265 -65 -478 -169 -825 -577 -906
-1066 -20 -127 -15 -395 11 -509 61 -273 179 -489 379 -689 265 -265 580 -398
941 -397 530 1 997 296 1226 777 211 444 158 1016 -131 1401 -218 292 -528
486 -860 540 -86 14 -313 19 -395 8z m75 -528 l0 -284 -87 5 c-106 6 -343 26
-343 29 0 1 8 26 19 56 47 137 133 271 231 363 55 50 152 116 173 116 4 0 7
-128 7 -285z m377 171 c87 -82 152 -175 203 -294 62 -141 67 -127 -52 -140
-57 -7 -149 -15 -205 -18 l-103 -7 0 287 0 287 42 -23 c23 -13 75 -54 115 -92z
m-871 -58 c-48 -77 -100 -183 -126 -261 -18 -52 -27 -66 -39 -63 -9 3 -45 12
-81 21 -36 9 -71 20 -78 24 -29 16 150 201 275 286 37 25 71 45 75 45 4 0 -7
-24 -26 -52z m1232 3 c113 -77 294 -264 275 -282 -8 -7 -166 -50 -168 -46 -1
1 -12 31 -25 67 -24 70 -87 201 -126 262 -13 21 -22 38 -19 38 4 0 32 -18 63
-39z m-1550 -503 c122 -31 124 -32 119 -58 -3 -14 -11 -83 -18 -153 l-12 -127
-160 0 -159 0 6 48 c17 117 77 322 94 322 4 0 63 -14 130 -32z m1974 -61 c21
-70 58 -245 58 -273 0 -2 -65 -4 -144 -4 l-144 0 -7 78 c-4 42 -12 111 -19
153 l-12 77 105 30 c58 17 113 31 121 31 10 1 23 -27 42 -92z m-463 -119 c6
-53 11 -110 11 -127 l0 -31 -245 0 -245 0 0 114 0 113 123 8 c67 3 169 12 227
19 58 7 108 10 111 7 4 -3 12 -50 18 -103z m-994 92 c83 -6 183 -13 223 -16
l72 -6 0 -114 0 -114 -251 0 -252 0 7 93 c10 139 16 167 35 167 9 0 84 -5 166
-10z m-412 -626 c10 -92 15 -169 12 -172 -5 -5 -239 -62 -241 -59 -28 47 -88
253 -100 345 l-7 52 159 0 159 0 18 -166z m707 37 l0 -118 -112 -6 c-62 -3
-168 -13 -236 -23 -67 -9 -124 -15 -126 -13 -5 6 -26 202 -26 247 l0 37 250
-3 250 -3 0 -118z m710 82 c0 -46 -14 -158 -26 -216 -5 -24 -10 -28 -29 -23
-45 11 -271 35 -352 37 l-83 2 0 123 0 124 245 0 245 0 0 -47z m504 5 c-16
-120 -60 -292 -83 -327 -7 -12 -27 -10 -121 12 -61 14 -113 27 -116 29 -2 3 3
42 11 89 8 46 18 119 21 162 l7 77 144 0 143 0 -6 -42z m-1214 -689 l0 -280
-22 6 c-39 11 -154 94 -202 145 -59 63 -125 167 -164 255 -52 121 -57 110 60
125 86 11 189 21 306 28 l22 2 0 -281z m505 255 c65 -8 121 -16 122 -18 2 -2
-5 -26 -16 -55 -55 -137 -137 -268 -211 -335 -44 -39 -157 -116 -172 -116 -4
0 -8 124 -8 275 l0 274 83 -5 c45 -3 136 -12 202 -20z m-1119 -139 c10 -33 42
-107 71 -163 29 -57 53 -106 53 -108 0 -2 -30 18 -67 43 -78 54 -256 228 -251
245 5 13 160 57 169 49 4 -3 15 -33 25 -66z m1549 58 c41 -9 75 -19 75 -23 0
-28 -283 -290 -314 -290 -3 0 14 37 38 83 37 67 69 143 101 235 6 15 9 15 100
-5z"/>
<path d="M6284 4794 c-443 -74 -822 -397 -964 -822 -115 -343 -62 -751 135
-1048 113 -169 281 -318 465 -414 353 -181 729 -185 1086 -10 304 148 526 400
628 710 46 142 60 231 60 385 1 191 -31 341 -110 513 -136 298 -446 564 -764
655 -161 46 -373 59 -536 31z m436 -237 c277 -72 511 -257 645 -510 167 -317
144 -709 -59 -1016 -52 -77 -185 -209 -266 -262 -187 -123 -390 -177 -619
-166 -254 13 -475 110 -651 287 -178 178 -274 398 -287 660 -25 508 340 949
853 1030 98 15 277 5 384 -23z"/>
<path d="M6602 4203 c-5 -16 -90 -242 -187 -503 -97 -261 -192 -516 -210 -567
l-34 -92 92 -30 c51 -17 97 -31 104 -31 6 0 18 19 26 43 14 40 408 1095 421
1127 5 12 -15 22 -92 48 -54 18 -101 32 -104 32 -3 0 -11 -12 -16 -27z"/>
</g>
</svg>
